<svg width="40" height="40" viewBox="0 0 40 40" fill="none" xmlns="http://www.w3.org/2000/svg">
<path d="M20 26.875C16.2091 26.875 13.125 23.7909 13.125 20C13.125 16.2091 16.2091 13.125 20 13.125C23.7909 13.125 26.875 16.2091 26.875 20C26.875 23.7909 23.7909 26.875 20 26.875ZM20 14.5C16.9667 14.5 14.5 16.9667 14.5 20C14.5 23.0333 16.9667 25.5 20 25.5C23.0333 25.5 25.5 23.0333 25.5 20C25.5 16.9667 23.0333 14.5 20 14.5Z" fill="#1363DF"/>
<path d="M20 22.75C18.4834 22.75 17.25 21.5166 17.25 20C17.25 18.4834 18.4834 17.25 20 17.25C21.5166 17.25 22.75 18.4834 22.75 20C22.75 21.5166 21.5166 22.75 20 22.75ZM20 18.625C19.2424 18.625 18.625 19.2424 18.625 20C18.625 20.7576 19.2424 21.375 20 21.375C20.7576 21.375 21.375 20.7576 21.375 20C21.375 19.2424 20.7576 18.625 20 18.625Z" fill="#1363DF"/>
<path d="M22.0625 39.25H17.9375C16.8004 39.25 15.875 38.3246 15.875 37.1875V35.081C15.875 34.7661 15.6825 34.487 15.4061 34.4018C14.4079 34.0938 13.466 33.6991 12.6094 33.2275C12.366 33.0928 12.0456 33.1519 11.8311 33.3705L10.7572 34.4595C9.96112 35.268 8.65212 35.279 7.84225 34.4829L4.93 31.6215C4.5505 31.2475 4.34425 30.7511 4.34975 30.2231C4.35663 29.636 4.62475 29.064 5.10462 28.6116L6.173 27.6065C6.393 27.3989 6.44387 27.062 6.2995 26.7691C5.93787 26.0363 5.65738 25.3446 5.4415 24.6544C5.34113 24.3326 5.084 24.125 4.78562 24.125H2.8125C1.67537 24.125 0.75 23.1996 0.75 22.0625V17.9375C0.75 16.8004 1.67537 15.875 2.8125 15.875H5.16238C5.45525 15.875 5.71512 15.6907 5.80725 15.4171C6.12625 14.4711 6.47688 13.6337 6.84675 12.9256C6.97463 12.6809 6.932 12.3756 6.74087 12.1653L4.81863 10.0505C4.07613 9.23375 4.105 7.98387 4.88462 7.20425L7.84637 4.2425C8.626 3.46287 9.98588 3.46425 10.7641 4.2425L12.7661 6.2445C13.0343 6.51262 13.0343 6.9485 12.7661 7.21663C12.498 7.48475 12.0621 7.48475 11.794 7.21663L9.79062 5.21463C9.53212 4.95613 9.07975 4.95613 8.8185 5.21463L5.85675 8.17638C5.59688 8.43625 5.58862 8.85287 5.83475 9.12512L7.75838 11.2399C8.33725 11.8751 8.461 12.8088 8.06638 13.5636C7.7295 14.2085 7.40775 14.9812 7.11075 15.8585C6.83025 16.6904 6.04788 17.25 5.16238 17.25H2.8125C2.433 17.25 2.125 17.558 2.125 17.9375V22.0625C2.125 22.442 2.433 22.75 2.8125 22.75H4.78562C5.6835 22.75 6.4755 23.3509 6.75463 24.2446C6.9485 24.8661 7.20288 25.4917 7.53288 26.16C7.94675 26.9987 7.779 27.9819 7.11625 28.6061L6.04788 29.6126C5.84163 29.8065 5.7275 30.0292 5.72475 30.2382C5.72338 30.3895 5.7825 30.5298 5.89525 30.6398L8.80888 33.5011C9.07838 33.7665 9.51425 33.7624 9.77963 33.4942L10.8535 32.4039C11.4984 31.7494 12.4939 31.594 13.2735 32.023C14.049 32.4506 14.9042 32.8081 15.8131 33.0886C16.6587 33.3499 17.25 34.1694 17.25 35.081V37.1875C17.25 37.567 17.558 37.875 17.9375 37.875H22.0625C22.442 37.875 22.75 37.567 22.75 37.1875V35.0906C22.75 34.1639 23.3261 33.3581 24.1827 33.0859C25.0682 32.804 25.9221 32.4341 26.7224 31.9873C27.502 31.5486 28.4989 31.6999 29.1479 32.3503L30.208 33.4104C30.4692 33.6703 30.9203 33.6703 31.1801 33.4104L34.0346 30.5559C34.1708 30.4198 34.2409 30.2396 34.2354 30.0485C34.2299 29.856 34.1474 29.6814 34.0044 29.5549L32.947 28.6213C32.2526 28.008 32.0615 26.985 32.4809 26.1311C32.804 25.4725 33.0542 24.8565 33.244 24.246C33.5245 23.3509 34.3165 22.75 35.2144 22.75H37.1875C37.567 22.75 37.875 22.442 37.875 22.0625V17.9375C37.875 17.558 37.567 17.25 37.1875 17.25H34.8376C33.9535 17.25 33.1711 16.6904 32.8893 15.8571C32.595 14.9895 32.2774 14.2236 31.9446 13.5829C31.5431 12.8101 31.6793 11.8627 32.2843 11.2275L33.9865 9.44138C34.3715 9.0385 34.4444 8.637 34.1817 8.37025L31.1732 5.30813C31.0426 5.17475 30.8542 5.09087 30.6824 5.10325C30.5009 5.10325 30.329 5.17337 30.1997 5.30125L28.2198 7.25787C27.6148 7.85737 26.677 8.00037 25.8919 7.6195C25.3171 7.339 24.7383 7.10388 24.1718 6.91688C23.3206 6.63638 22.75 5.8705 22.75 5.00838V2.8125C22.75 2.433 22.442 2.125 22.0625 2.125H17.9375C17.558 2.125 17.25 2.433 17.25 2.8125V5.00975C17.25 5.38925 16.942 5.69725 16.5625 5.69725C16.183 5.69725 15.875 5.39063 15.875 5.00975V2.8125C15.875 1.67537 16.8004 0.75 17.9375 0.75H22.0625C23.1996 0.75 24.125 1.67537 24.125 2.8125V5.00838C24.125 5.27925 24.3106 5.51575 24.598 5.61062C25.2236 5.8155 25.8603 6.07538 26.4914 6.38338C26.7609 6.51675 27.0579 6.47275 27.2504 6.28162L29.2304 4.325C29.6222 3.93725 30.1544 3.75025 30.6947 3.72962C31.2475 3.73375 31.7645 3.95237 32.1509 4.34562L35.1594 7.40775C35.9555 8.21762 35.8812 9.4455 34.9792 10.3915L33.2784 12.1763C33.0776 12.3866 33.0309 12.6974 33.1629 12.9504C33.5286 13.653 33.8737 14.4835 34.19 15.4185C34.2849 15.6908 34.5434 15.875 34.8376 15.875H37.1875C38.3246 15.875 39.25 16.8004 39.25 17.9375V22.0625C39.25 23.1996 38.3246 24.125 37.1875 24.125H35.2144C34.916 24.125 34.6575 24.3326 34.5571 24.6544C34.3467 25.3323 34.0704 26.0129 33.7156 26.7361C33.5671 27.04 33.6249 27.3824 33.8586 27.59L34.916 28.5236C35.3409 28.899 35.5939 29.4394 35.6118 30.0059C35.6283 30.5724 35.4096 31.1265 35.0081 31.528L32.1536 34.3825C31.374 35.1621 30.0141 35.1607 29.2359 34.3825L28.1757 33.3224C27.9585 33.1065 27.6381 33.0515 27.3948 33.1876C26.5134 33.6812 25.5729 34.0883 24.5994 34.3976C24.3202 34.4856 24.125 34.7703 24.125 35.0906V37.1875C24.125 38.3246 23.1996 39.25 22.0625 39.25Z" fill="#1363DF"/>
<path d="M20 26.875C16.2091 26.875 13.125 23.7909 13.125 20C13.125 16.2091 16.2091 13.125 20 13.125C23.7909 13.125 26.875 16.2091 26.875 20C26.875 23.7909 23.7909 26.875 20 26.875ZM20 14.5C16.9667 14.5 14.5 16.9667 14.5 20C14.5 23.0333 16.9667 25.5 20 25.5C23.0333 25.5 25.5 23.0333 25.5 20C25.5 16.9667 23.0333 14.5 20 14.5Z" fill="#1363DF"/>
<path d="M20 22.75C18.4834 22.75 17.25 21.5166 17.25 20C17.25 18.4834 18.4834 17.25 20 17.25C21.5166 17.25 22.75 18.4834 22.75 20C22.75 21.5166 21.5166 22.75 20 22.75ZM20 18.625C19.2424 18.625 18.625 19.2424 18.625 20C18.625 20.7576 19.2424 21.375 20 21.375C20.7576 21.375 21.375 20.7576 21.375 20C21.375 19.2424 20.7576 18.625 20 18.625Z" fill="#1363DF"/>
<path d="M22.0625 39.25H17.9375C16.8004 39.25 15.875 38.3246 15.875 37.1875V35.081C15.875 34.7661 15.6825 34.487 15.4061 34.4018C14.4079 34.0938 13.466 33.6991 12.6094 33.2275C12.366 33.0928 12.0456 33.1519 11.8311 33.3705L10.7572 34.4595C9.96112 35.268 8.65212 35.279 7.84225 34.4829L4.93 31.6215C4.5505 31.2475 4.34425 30.7511 4.34975 30.2231C4.35663 29.636 4.62475 29.064 5.10462 28.6116L6.173 27.6065C6.393 27.3989 6.44387 27.062 6.2995 26.7691C5.93787 26.0363 5.65738 25.3446 5.4415 24.6544C5.34113 24.3326 5.084 24.125 4.78562 24.125H2.8125C1.67537 24.125 0.75 23.1996 0.75 22.0625V17.9375C0.75 16.8004 1.67537 15.875 2.8125 15.875H5.16238C5.45525 15.875 5.71512 15.6907 5.80725 15.4171C6.12625 14.4711 6.47688 13.6337 6.84675 12.9256C6.97463 12.6809 6.932 12.3756 6.74087 12.1653L4.81863 10.0505C4.07613 9.23375 4.105 7.98387 4.88462 7.20425L7.84637 4.2425C8.626 3.46287 9.98588 3.46425 10.7641 4.2425L12.7661 6.2445C13.0343 6.51262 13.0343 6.9485 12.7661 7.21663C12.498 7.48475 12.0621 7.48475 11.794 7.21663L9.79062 5.21463C9.53212 4.95613 9.07975 4.95613 8.8185 5.21463L5.85675 8.17638C5.59688 8.43625 5.58862 8.85287 5.83475 9.12512L7.75838 11.2399C8.33725 11.8751 8.461 12.8088 8.06638 13.5636C7.7295 14.2085 7.40775 14.9812 7.11075 15.8585C6.83025 16.6904 6.04788 17.25 5.16238 17.25H2.8125C2.433 17.25 2.125 17.558 2.125 17.9375V22.0625C2.125 22.442 2.433 22.75 2.8125 22.75H4.78562C5.6835 22.75 6.4755 23.3509 6.75463 24.2446C6.9485 24.8661 7.20288 25.4917 7.53288 26.16C7.94675 26.9987 7.779 27.9819 7.11625 28.6061L6.04788 29.6126C5.84163 29.8065 5.7275 30.0292 5.72475 30.2382C5.72338 30.3895 5.7825 30.5298 5.89525 30.6398L8.80888 33.5011C9.07838 33.7665 9.51425 33.7624 9.77963 33.4942L10.8535 32.4039C11.4984 31.7494 12.4939 31.594 13.2735 32.023C14.049 32.4506 14.9042 32.8081 15.8131 33.0886C16.6587 33.3499 17.25 34.1694 17.25 35.081V37.1875C17.25 37.567 17.558 37.875 17.9375 37.875H22.0625C22.442 37.875 22.75 37.567 22.75 37.1875V35.0906C22.75 34.1639 23.3261 33.3581 24.1827 33.0859C25.0682 32.804 25.9221 32.4341 26.7224 31.9873C27.502 31.5486 28.4989 31.6999 29.1479 32.3503L30.208 33.4104C30.4692 33.6703 30.9203 33.6703 31.1801 33.4104L34.0346 30.5559C34.1708 30.4198 34.2409 30.2396 34.2354 30.0485C34.2299 29.856 34.1474 29.6814 34.0044 29.5549L32.947 28.6213C32.2526 28.008 32.0615 26.985 32.4809 26.1311C32.804 25.4725 33.0542 24.8565 33.244 24.246C33.5245 23.3509 34.3165 22.75 35.2144 22.75H37.1875C37.567 22.75 37.875 22.442 37.875 22.0625V17.9375C37.875 17.558 37.567 17.25 37.1875 17.25H34.8376C33.9535 17.25 33.1711 16.6904 32.8893 15.8571C32.595 14.9895 32.2774 14.2236 31.9446 13.5829C31.5431 12.8101 31.6793 11.8627 32.2843 11.2275L33.9865 9.44138C34.3715 9.0385 34.4444 8.637 34.1817 8.37025L31.1732 5.30813C31.0426 5.17475 30.8542 5.09087 30.6824 5.10325C30.5009 5.10325 30.329 5.17337 30.1997 5.30125L28.2198 7.25787C27.6148 7.85737 26.677 8.00037 25.8919 7.6195C25.3171 7.339 24.7383 7.10388 24.1718 6.91688C23.3206 6.63638 22.75 5.8705 22.75 5.00838V2.8125C22.75 2.433 22.442 2.125 22.0625 2.125H17.9375C17.558 2.125 17.25 2.433 17.25 2.8125V5.00975C17.25 5.38925 16.942 5.69725 16.5625 5.69725C16.183 5.69725 15.875 5.39063 15.875 5.00975V2.8125C15.875 1.67537 16.8004 0.75 17.9375 0.75H22.0625C23.1996 0.75 24.125 1.67537 24.125 2.8125V5.00838C24.125 5.27925 24.3106 5.51575 24.598 5.61062C25.2236 5.8155 25.8603 6.07538 26.4914 6.38338C26.7609 6.51675 27.0579 6.47275 27.2504 6.28162L29.2304 4.325C29.6222 3.93725 30.1544 3.75025 30.6947 3.72962C31.2475 3.73375 31.7645 3.95237 32.1509 4.34562L35.1594 7.40775C35.9555 8.21762 35.8812 9.4455 34.9792 10.3915L33.2784 12.1763C33.0776 12.3866 33.0309 12.6974 33.1629 12.9504C33.5286 13.653 33.8737 14.4835 34.19 15.4185C34.2849 15.6908 34.5434 15.875 34.8376 15.875H37.1875C38.3246 15.875 39.25 16.8004 39.25 17.9375V22.0625C39.25 23.1996 38.3246 24.125 37.1875 24.125H35.2144C34.916 24.125 34.6575 24.3326 34.5571 24.6544C34.3467 25.3323 34.0704 26.0129 33.7156 26.7361C33.5671 27.04 33.6249 27.3824 33.8586 27.59L34.916 28.5236C35.3409 28.899 35.5939 29.4394 35.6118 30.0059C35.6283 30.5724 35.4096 31.1265 35.0081 31.528L32.1536 34.3825C31.374 35.1621 30.0141 35.1607 29.2359 34.3825L28.1757 33.3224C27.9585 33.1065 27.6381 33.0515 27.3948 33.1876C26.5134 33.6812 25.5729 34.0883 24.5994 34.3976C24.3202 34.4856 24.125 34.7703 24.125 35.0906V37.1875C24.125 38.3246 23.1996 39.25 22.0625 39.25Z" fill="#1363DF"/>
</svg>
