<svg width="41" height="33" viewBox="0 0 41 33" fill="none" xmlns="http://www.w3.org/2000/svg">
<path d="M38 0.972168H3C1.61875 0.972168 0.5 2.0412 0.5 3.36106V29.6388C0.5 30.9587 1.61875 32.0277 3 32.0277H38C39.3813 32.0277 40.5 30.9587 40.5 29.6388V3.36106C40.5 2.0412 39.3813 0.972168 38 0.972168ZM3 29.6388V3.36106H38V29.6388H3Z" fill="#1363DF"/>
<path d="M17.525 13.1818L10.0025 23.6285L4.9375 19.3476L6.2625 17.9166L9.635 20.7666L17.5425 9.78723L25.98 21.7496L34.4225 11.0892L36.0175 12.243L25.885 25.0343L17.525 13.1818Z" fill="#1363DF"/>
</svg>
