<svg width="31" height="33" viewBox="0 0 31 33" fill="none" xmlns="http://www.w3.org/2000/svg">
<g clip-path="url(#clip0_37_12)">
<path d="M18.8948 3.4447C14.5802 -1.14823 7.5608 -1.14823 3.24623 3.4447C-1.0684 8.03763 -1.0684 15.5107 3.24623 20.1036C7.5608 24.6966 14.5802 24.6966 18.8948 20.1036C23.2094 15.5107 23.2094 8.03763 18.8948 3.4447ZM17.3584 18.4681C13.886 22.1639 8.25503 22.1639 4.7826 18.4674C1.31018 14.771 1.31018 8.77671 4.7826 5.08097C8.25503 1.38452 13.8853 1.38452 17.3578 5.08097C20.8302 8.77742 20.8309 14.771 17.3584 18.4681Z" fill="#1363DF"/>
<path d="M6.1704 7.25298C4.39292 9.68448 4.24495 13.03 5.72713 15.6127C5.84078 15.8117 6.08448 15.8736 6.27072 15.7533C6.4563 15.6316 6.51515 15.3729 6.40151 15.1747C5.0897 12.8894 5.22048 9.91928 6.79318 7.77054C6.92796 7.58769 6.8969 7.32337 6.72446 7.18054C6.55281 7.03784 6.30445 7.0702 6.1704 7.25298Z" fill="#1363DF"/>
<path d="M30.1853 28.8571L22.1545 20.5298C21.7153 20.0741 21.0138 20.0798 20.5798 20.541L19.3064 21.8966C18.8731 22.3579 18.8684 23.1046 19.2971 23.5715L27.1191 32.1203C27.9878 33.2369 29.2711 33.303 30.2626 32.2469C31.2553 31.1922 31.2335 29.7818 30.1853 28.8571Z" fill="#1363DF"/>
</g>
<defs>
<clipPath id="clip0_37_12">
<rect width="31" height="33" fill="white"/>
</clipPath>
</defs>
</svg>
