<svg width="41" height="40" viewBox="0 0 41 40" fill="none" xmlns="http://www.w3.org/2000/svg">
<g clip-path="url(#clip0_37_2)">
<path d="M8.64378 0.0644279C9.23099 -0.139709 9.88575 0.156615 10.095 0.736123C12.3426 6.87347 13.6522 12.1548 14.0707 16.8435L28.7515 16.8435C29.7708 16.8435 30.6549 17.4427 30.9992 18.3712C31.3569 19.3064 31.0802 20.3402 30.2972 20.9921C29.008 22.0721 28.4343 22.9941 28.5625 23.7382H31.9847C32.6124 23.7382 33.1254 24.2321 33.1254 24.851C33.1254 25.4635 32.6191 25.9639 31.9847 25.9639L23.4867 25.9639V34.7222H28.9743C29.467 34.7222 29.8991 35.0317 30.0542 35.4861L31.0802 38.5417C31.276 39.1212 30.952 39.7533 30.3512 39.9443C29.7572 40.1353 29.1092 39.8192 28.9134 39.2331L28.1439 36.9415H23.4798V38.8841C23.4798 39.4965 22.9735 39.997 22.3391 39.997C21.7114 39.997 21.1984 39.5032 21.1984 38.8841V36.9415H16.5342L15.7647 39.2331C15.6095 39.7007 14.9075 40.1089 14.327 39.9443C13.7195 39.7731 13.409 39.1278 13.598 38.5417L14.6239 35.4861C14.7792 35.0317 15.2111 34.7222 15.7039 34.7222H21.1915V25.9639H12.6867C11.5324 25.9639 11.5055 24.9959 11.5662 24.6732C11.9105 22.6121 12.8892 14.1172 7.93482 1.4999C7.73258 0.9206 8.05657 0.275186 8.64378 0.0644279ZM26.2541 23.7383C26.1799 22.5793 26.7131 21.0647 28.8191 19.3065C28.8461 19.2801 28.9473 19.0694 28.7448 19.0694L14.2058 19.0694C14.2531 20.6894 14.1923 22.25 14.01 23.7383L26.2541 23.7383Z" fill="#1363DF"/>
</g>
<defs>
<clipPath id="clip0_37_2">
<rect width="41" height="40" fill="white" transform="matrix(-1 0 0 1 41 0)"/>
</clipPath>
</defs>
</svg>
