<svg width="45" height="42" viewBox="0 0 45 42" fill="none" xmlns="http://www.w3.org/2000/svg">
<g filter="url(#filter0_d_37_24)">
<path d="M26.8809 18.2077L26.3934 17.3357C26.0779 17.545 25.9046 17.9363 25.9509 18.3355C25.9971 18.7344 26.2541 19.0668 26.6076 19.1842L26.8809 18.2077ZM18.1189 18.2077L18.3923 19.1842C18.7457 19.0668 19.0028 18.7344 19.0491 18.3355C19.0952 17.9363 18.9219 17.545 18.6064 17.3357L18.1189 18.2077ZM30 10.3542C30 13.3105 28.5579 15.901 26.3934 17.3357L27.3684 19.0797C30.0684 17.2899 31.875 14.0523 31.875 10.3542H30ZM22.5 2.18754C26.6421 2.18754 30 5.84388 30 10.3542H31.875C31.875 4.71631 27.6776 0.145874 22.5 0.145874V2.18754ZM14.9999 10.3542C14.9999 5.84388 18.3578 2.18754 22.5 2.18754V0.145874C17.3223 0.145874 13.1249 4.71631 13.1249 10.3542H14.9999ZM18.6064 17.3357C16.442 15.901 14.9999 13.3105 14.9999 10.3542H13.1249C13.1249 14.0523 14.9314 17.2899 17.6314 19.0797L18.6064 17.3357ZM17.8455 17.2312C11.9266 19.1965 7.46918 24.81 6.68521 31.6696L8.54585 31.9218C9.23697 25.8745 13.1697 20.9182 18.3923 19.1842L17.8455 17.2312ZM6.68521 31.6696C6.478 33.4826 7.85729 34.8542 9.37493 34.8542V32.8125C8.82153 32.8125 8.49728 32.3468 8.54585 31.9218L6.68521 31.6696ZM9.37493 34.8542H35.625V32.8125H9.37493V34.8542ZM35.625 34.8542C37.1426 34.8542 38.5219 33.4826 38.3147 31.6696L36.4539 31.9218C36.5025 32.3468 36.1783 32.8125 35.625 32.8125V34.8542ZM38.3147 31.6696C37.5308 24.81 33.0733 19.1965 27.1543 17.2312L26.6076 19.1842C31.8302 20.9182 35.7628 25.8745 36.4539 31.9218L38.3147 31.6696Z" fill="#1363DF"/>
</g>
<defs>
<filter id="filter0_d_37_24" x="-26.6688" y="0.145874" width="98.3376" height="101.375" filterUnits="userSpaceOnUse" color-interpolation-filters="sRGB">
<feFlood flood-opacity="0" result="BackgroundImageFix"/>
<feColorMatrix in="SourceAlpha" type="matrix" values="0 0 0 0 0 0 0 0 0 0 0 0 0 0 0 0 0 0 127 0" result="hardAlpha"/>
<feOffset dy="33.3333"/>
<feGaussianBlur stdDeviation="16.6667"/>
<feColorMatrix type="matrix" values="0 0 0 0 0 0 0 0 0 0 0 0 0 0 0 0 0 0 0.1 0"/>
<feBlend mode="normal" in2="BackgroundImageFix" result="effect1_dropShadow_37_24"/>
<feBlend mode="normal" in="SourceGraphic" in2="effect1_dropShadow_37_24" result="shape"/>
</filter>
</defs>
</svg>
