<svg width="47" height="48" viewBox="0 0 47 48" fill="none" xmlns="http://www.w3.org/2000/svg">
<path d="M20.4183 3.08038V37.4882L5.30395 22.456C4.09605 21.2546 2.11384 21.2546 0.905931 22.456C-0.301977 23.6573 -0.301977 25.5979 0.905931 26.7993L21.3165 47.099C22.5244 48.3003 24.4756 48.3003 25.6835 47.099L46.0941 26.7993C47.302 25.5979 47.302 23.6573 46.0941 22.456C45.5154 21.8792 44.7298 21.555 43.9105 21.555C43.0913 21.555 42.3057 21.8792 41.727 22.456L26.6127 37.4882V3.08038C26.6127 1.38617 25.2189 0 23.5155 0C21.812 0 20.4183 1.38617 20.4183 3.08038Z" fill="white"/>
</svg>
