<svg width="91" height="91" viewBox="0 0 91 91" fill="none" xmlns="http://www.w3.org/2000/svg">
<circle cx="45.5" cy="45.5" r="44.5" stroke="#2D4E6E" stroke-width="2"/>
<path d="M35.3163 62V59.1499L46.8088 47.1517C48.3105 45.5887 49.4291 44.1023 50.1646 42.6926C50.9308 41.2522 51.3139 39.7658 51.3139 38.2335C51.3139 36.3641 50.7316 34.9543 49.567 34.0043C48.4025 33.0236 46.7169 32.5332 44.5103 32.5332C42.7941 32.5332 41.2005 32.8397 39.7294 33.4526C38.2891 34.0349 36.8946 34.9696 35.5462 36.2568L34.1671 33.2687C35.3929 32.0429 36.9559 31.0622 38.856 30.3267C40.7561 29.5605 42.7635 29.1774 44.8781 29.1774C48.1573 29.1774 50.6856 29.9436 52.4631 31.4759C54.2406 32.9776 55.1294 35.1229 55.1294 37.9117C55.1294 39.965 54.6237 41.9264 53.6124 43.7959C52.6317 45.6347 51.1913 47.5348 49.2912 49.4962L39.1318 59.7934V58.7361H56.5085V62H35.3163Z" fill="#2D4E6E"/>
</svg>
