<svg width="91" height="91" viewBox="0 0 91 91" fill="none" xmlns="http://www.w3.org/2000/svg">
<circle cx="45.5" cy="45.5" r="44.5" stroke="#2D4E6E" stroke-width="2"/>
<path d="M45.8251 62.4137C43.6492 62.4137 41.5652 62.0766 39.5732 61.4024C37.5811 60.7282 35.9109 59.7628 34.5624 58.5063L35.9875 55.5642C37.4892 56.7901 39.0369 57.6788 40.6305 58.2305C42.2241 58.7821 43.9403 59.0579 45.7791 59.0579C48.2002 59.0579 50.039 58.5522 51.2955 57.5409C52.552 56.4989 53.1803 54.9819 53.1803 52.9899C53.1803 51.0898 52.5367 49.6494 51.2496 48.6687C49.9624 47.6574 48.0776 47.1517 45.5952 47.1517H40.7224V43.9798H45.2735C47.4187 43.9798 49.1196 43.4281 50.3761 42.3248C51.6326 41.2216 52.2609 39.7199 52.2609 37.8198C52.2609 36.1036 51.6786 34.8011 50.514 33.9123C49.3801 32.9929 47.7405 32.5332 45.5952 32.5332C42.1015 32.5332 39.0828 33.7744 36.5392 36.2568L35.1141 33.2687C36.3706 31.9816 37.9489 30.9856 39.849 30.2807C41.7491 29.5452 43.7411 29.1774 45.8251 29.1774C49.0124 29.1774 51.5101 29.9129 53.3182 31.384C55.1264 32.855 56.0304 34.893 56.0304 37.498C56.0304 39.49 55.4635 41.2062 54.3296 42.6466C53.1956 44.0564 51.6633 45.0217 49.7325 45.5427V45.0371C52.0311 45.4048 53.8086 46.3242 55.0651 47.7953C56.3216 49.2357 56.9498 51.0591 56.9498 53.2657C56.9498 56.0852 55.9538 58.3224 53.9618 59.9773C52.0004 61.6016 49.2882 62.4137 45.8251 62.4137Z" fill="#2D4E6E"/>
</svg>
